<svg width="46" height="46" viewBox="0 0 46 46" fill="none" xmlns="http://www.w3.org/2000/svg">
<path d="M16.5313 25.1562C16.1048 25.1562 15.6879 25.0298 15.3333 24.7929C14.9787 24.5559 14.7023 24.2192 14.5391 23.8252C14.3759 23.4312 14.3332 22.9976 14.4164 22.5793C14.4996 22.1611 14.705 21.7769 15.0066 21.4753C15.3081 21.1737 15.6923 20.9684 16.1106 20.8852C16.5289 20.802 16.9624 20.8447 17.3564 21.0079C17.7504 21.1711 18.0872 21.4475 18.3241 21.8021C18.561 22.1566 18.6875 22.5735 18.6875 23C18.6875 23.5719 18.4603 24.1203 18.056 24.5247C17.6516 24.9291 17.1031 25.1562 16.5313 25.1562ZM29.4688 20.8438C29.0423 20.8438 28.6254 20.9702 28.2708 21.2071C27.9162 21.4441 27.6398 21.7808 27.4766 22.1748C27.3134 22.5688 27.2707 23.0024 27.3539 23.4207C27.4371 23.8389 27.6425 24.2231 27.9441 24.5247C28.2456 24.8263 28.6298 25.0316 29.0481 25.1148C29.4664 25.198 29.8999 25.1553 30.2939 24.9921C30.6879 24.8289 31.0247 24.5525 31.2616 24.1979C31.4985 23.8434 31.625 23.4265 31.625 23C31.625 22.4281 31.3978 21.8797 30.9935 21.4753C30.5891 21.0709 30.0406 20.8438 29.4688 20.8438ZM27.264 28.971C25.9837 29.7656 24.5068 30.1867 23 30.1867C21.4932 30.1867 20.0163 29.7656 18.736 28.971C18.4134 28.7675 18.0231 28.7005 17.6511 28.7848C17.2791 28.869 16.9558 29.0976 16.7523 29.4202C16.5488 29.7429 16.4818 30.1331 16.566 30.5051C16.6503 30.8772 16.8789 31.2005 17.2015 31.404C18.9411 32.4885 20.95 33.0633 23 33.0633C25.05 33.0633 27.0589 32.4885 28.7985 31.404C29.1212 31.2005 29.3497 30.8772 29.434 30.5051C29.5182 30.1331 29.4512 29.7429 29.2477 29.4202C29.0443 29.0976 28.7209 28.869 28.3489 28.7848C27.9769 28.7005 27.5866 28.7675 27.264 28.971ZM41.6875 23C41.6875 26.696 40.5915 30.3091 38.5381 33.3822C36.4847 36.4554 33.5661 38.8506 30.1514 40.265C26.7367 41.6794 22.9793 42.0495 19.3543 41.3284C15.7292 40.6074 12.3994 38.8276 9.78595 36.2141C7.17246 33.6006 5.39264 30.2708 4.67158 26.6458C3.95052 23.0207 4.3206 19.2633 5.73501 15.8486C7.14942 12.4339 9.54465 9.51532 12.6178 7.46191C15.6909 5.4085 19.304 4.3125 23 4.3125C27.9546 4.31773 32.7048 6.28827 36.2083 9.79172C39.7117 13.2952 41.6823 18.0454 41.6875 23ZM38.8125 23C38.8075 18.9294 37.2349 15.0172 34.4212 12.0757C31.6075 9.13416 27.7689 7.38939 23.7026 7.20367C21.62 10.1308 21.5625 12.9159 21.5625 12.9375C21.5625 13.3187 21.714 13.6844 21.9835 13.954C22.2531 14.2235 22.6188 14.375 23 14.375C23.3813 14.375 23.7469 14.2235 24.0165 13.954C24.2861 13.6844 24.4375 13.3187 24.4375 12.9375C24.4375 12.5563 24.589 12.1906 24.8585 11.921C25.1281 11.6515 25.4938 11.5 25.875 11.5C26.2563 11.5 26.6219 11.6515 26.8915 11.921C27.1611 12.1906 27.3125 12.5563 27.3125 12.9375C27.3125 14.0812 26.8582 15.1781 26.0494 15.9869C25.2407 16.7956 24.1438 17.25 23 17.25C21.8563 17.25 20.7594 16.7956 19.9506 15.9869C19.1419 15.1781 18.6875 14.0812 18.6875 12.9375C18.6875 12.8063 18.7109 10.368 20.2077 7.43367C17.2471 7.96484 14.4994 9.3294 12.287 11.3673C10.0746 13.4051 8.48941 16.0317 7.71732 18.9388C6.94523 21.8459 7.01832 24.9129 7.928 27.7799C8.83769 30.6469 10.5462 33.195 12.8531 35.1252C15.1601 37.0553 17.9696 38.2875 20.9522 38.677C23.9347 39.0665 26.9665 38.5973 29.6918 37.3244C32.417 36.0515 34.7227 34.0277 36.3382 31.4905C37.9537 28.9532 38.8121 26.0079 38.8125 23Z" fill="black"/>
</svg>
