<svg width="46" height="46" viewBox="0 0 46 46" fill="none" xmlns="http://www.w3.org/2000/svg">
<path fill-rule="evenodd" clip-rule="evenodd" d="M32.9779 3.55799C30.9409 2.75551 28.9723 3.29875 27.5788 4.53807C26.2196 5.74692 25.3958 7.60926 25.3958 9.58368V17.2503C25.3958 19.1028 26.8975 20.6045 28.7499 20.6045H36.4166C38.391 20.6045 40.2533 19.7807 41.4622 18.4214C42.7015 17.028 43.2448 15.0594 42.4423 13.0224C40.7402 8.7018 37.2985 5.26007 32.9779 3.55799ZM28.2708 17.2503V9.58368C28.2708 8.38247 28.7785 7.3187 29.4895 6.68635C30.1662 6.08447 31.0065 5.87141 31.9241 6.2329C35.5029 7.64276 38.3575 10.4974 39.7674 14.0761C40.1289 14.9938 39.9158 15.8341 39.3139 16.5108C38.6816 17.2218 37.6178 17.7295 36.4166 17.7295H28.7499C28.4853 17.7295 28.2708 17.515 28.2708 17.2503Z" fill="#1C274C"/>
<path fill-rule="evenodd" clip-rule="evenodd" d="M21.0742 5.50107C19.904 4.74298 18.7721 4.52473 17.5292 4.74145C16.4737 4.9255 15.3439 5.43181 14.1414 5.97069L14.0118 6.02874C13.0116 6.47667 12.0463 7.00947 11.127 7.62375C7.89621 9.78246 5.37816 12.8507 3.89121 16.4405C2.40426 20.0303 2.01521 23.9805 2.77325 27.7914C3.53129 31.6023 5.40237 35.1028 8.14989 37.8504C10.8974 40.5979 14.398 42.469 18.2089 43.227C22.0198 43.985 25.9699 43.596 29.5597 42.109C33.1495 40.6221 36.2178 38.104 38.3765 34.8733C38.9908 33.954 39.5236 32.9886 39.9715 31.9884L40.0296 31.8588C40.5684 30.6564 41.0748 29.5266 41.2588 28.4711C41.4755 27.2282 41.2573 26.0962 40.4992 24.9261C39.6819 23.6646 38.563 23.0482 37.1947 22.7688C35.9797 22.5208 34.4616 22.521 32.7216 22.5212L29.7083 22.5212C27.8606 22.5212 26.6194 22.5181 25.6936 22.3936C24.8091 22.2747 24.4306 22.0692 24.1808 21.8194C23.931 21.5697 23.7255 21.1911 23.6066 20.3067C23.4821 19.3808 23.4791 18.1397 23.4791 16.292L23.4791 13.2787C23.4793 11.5387 23.4794 10.0205 23.2314 8.80558C22.9521 7.43727 22.3356 6.31834 21.0742 5.50107ZM15.1869 8.65264C16.5654 8.03531 17.3644 7.68857 18.023 7.57372C18.5321 7.48495 18.932 7.53889 19.5109 7.91394C19.9985 8.22981 20.2566 8.60685 20.4145 9.3806C20.5972 10.2756 20.6041 11.4973 20.6041 13.417L20.6041 16.3916C20.604 18.1137 20.604 19.5498 20.7573 20.6897C20.919 21.893 21.2749 22.9794 22.1479 23.8524C23.0209 24.7254 24.1072 25.0812 25.3105 25.243C26.4505 25.3963 27.8865 25.3962 29.6085 25.3962L32.5833 25.3962C34.5029 25.3962 35.7246 25.403 36.6197 25.5857C37.3934 25.7437 37.7704 26.0018 38.0863 26.4893C38.4614 27.0682 38.5153 27.4682 38.4265 27.9772C38.3117 28.6359 37.9649 29.4349 37.3476 30.8134C36.9652 31.6672 36.5104 32.4912 35.986 33.276C34.1432 36.034 31.524 38.1835 28.4595 39.4529C25.395 40.7222 22.023 41.0544 18.7698 40.4072C15.5165 39.7601 12.5283 38.1629 10.1828 35.8174C7.83738 33.472 6.24011 30.4837 5.59301 27.2305C4.9459 23.9773 5.27802 20.6052 6.54736 17.5407C7.81671 14.4763 9.96627 11.857 12.7242 10.0142C13.509 9.48982 14.3331 9.03501 15.1869 8.65264Z" fill="#1C274C"/>
</svg>
