<svg width="46" height="44" viewBox="0 0 46 44" fill="none" xmlns="http://www.w3.org/2000/svg">
<g clip-path="url(#clip0_100_4616)">
<path d="M22.0416 5.5C23.9257 5.50014 25.7581 6.09016 27.2587 7.17996C28.7594 8.26975 29.8458 9.79942 30.3523 11.5353L30.4519 11.9112L34.0361 11.055C34.2981 10.9926 34.5709 10.9839 34.8366 11.0294C35.1023 11.0749 35.3551 11.1735 35.5782 11.3189C35.8013 11.4643 35.9898 11.6531 36.1313 11.873C36.2728 12.093 36.3641 12.339 36.3993 12.595L36.4166 12.8333V16.1517C37.4971 17.1426 38.3827 18.3113 39.0309 19.602L39.2954 20.1667H40.2499C40.7194 20.1667 41.1725 20.3316 41.5233 20.63C41.8741 20.9284 42.0982 21.3395 42.1532 21.7855L42.1666 22V27.5C42.1666 27.8018 42.0888 28.0989 41.94 28.3649C41.7912 28.631 41.5761 28.8579 41.3137 29.0253L41.1067 29.139L38.868 30.2115C37.9515 31.9075 36.624 33.369 34.9963 34.474L34.4999 34.793V36.6667C34.4999 37.1157 34.3275 37.5491 34.0155 37.8847C33.7036 38.2202 33.2737 38.4346 32.8075 38.4872L32.5833 38.5H26.8333C26.3638 38.4999 25.9107 38.3351 25.5599 38.0367C25.2091 37.7383 24.9849 37.3271 24.93 36.8812L24.9166 36.6667H22.9999C22.9999 37.1157 22.8275 37.5491 22.5155 37.8847C22.2036 38.2202 21.7737 38.4346 21.3075 38.4872L21.0833 38.5H15.3333C14.8638 38.4999 14.4107 38.3351 14.0599 38.0367C13.7091 37.7383 13.4849 37.3271 13.43 36.8812L13.4166 36.6667V34.793C12.032 33.9463 10.8359 32.8461 9.89714 31.5559C8.95839 30.2656 8.29545 28.8106 7.94642 27.2745C6.81621 26.9528 5.81665 26.3066 5.08302 25.4235C4.34939 24.5405 3.91713 23.4631 3.84475 22.3373L3.83325 22V21.0833C3.83379 20.6161 4.02085 20.1666 4.35621 19.8268C4.69157 19.487 5.14991 19.2826 5.63759 19.2552C6.12527 19.2278 6.60548 19.3796 6.9801 19.6795C7.35472 19.9794 7.59547 20.4048 7.65317 20.8688L7.66659 21.0833V22C7.66659 22.2713 7.72792 22.5298 7.83909 22.7608C8.13164 21.1103 8.78425 19.5372 9.75446 18.1439C10.7247 16.7506 11.9907 15.5683 13.4703 14.674C13.3343 13.5199 13.4546 12.3513 13.8233 11.2447C14.192 10.1382 14.8008 9.11853 15.6099 8.25254C16.419 7.38655 17.4102 6.69372 18.5185 6.21939C19.6268 5.74506 20.8274 5.49992 22.0416 5.5ZM32.5833 15.18L27.2971 16.445L27.0671 16.4872L26.8333 16.5H20.1249C18.1869 16.4988 16.305 17.1219 14.7825 18.2689C13.26 19.4159 12.1858 21.0199 11.733 22.8224C11.2801 24.6248 11.4751 26.5206 12.2865 28.204C13.0979 29.8875 14.4784 31.2605 16.2053 32.1017C16.4836 32.2377 16.7228 32.4368 16.9022 32.6816C17.0816 32.9264 17.1957 33.2094 17.2346 33.506L17.2499 33.7333V34.8333H19.1666C19.1666 34.3843 19.339 33.9509 19.651 33.6153C19.9629 33.2798 20.3928 33.0654 20.859 33.0128L21.0833 33H26.8333C27.3027 33.0001 27.7558 33.1649 28.1066 33.4633C28.4575 33.7617 28.6816 34.1729 28.7365 34.6188L28.7499 34.8333H30.6666V33.7333C30.6668 33.3957 30.7644 33.0647 30.9487 32.7768C31.133 32.4889 31.3969 32.2553 31.7112 32.1017C33.4699 31.2404 34.8684 29.8304 35.6748 28.105C35.8186 27.7964 36.0487 27.5318 36.3399 27.3405L36.568 27.2122L38.3333 26.367V23.8333H37.9365C37.5192 23.8332 37.1133 23.7028 36.7805 23.4619C36.4477 23.221 36.2062 22.8828 36.0927 22.4987C35.6132 20.8859 34.6318 19.4509 33.279 18.3847C32.9037 18.0881 32.6604 17.6659 32.5986 17.204L32.5833 16.9712V15.1818V15.18ZM30.6666 20.1667C31.1749 20.1667 31.6624 20.3598 32.0219 20.7036C32.3813 21.0475 32.5833 21.5138 32.5833 22C32.5833 22.4862 32.3813 22.9525 32.0219 23.2964C31.6624 23.6402 31.1749 23.8333 30.6666 23.8333C30.1583 23.8333 29.6707 23.6402 29.3113 23.2964C28.9519 22.9525 28.7499 22.4862 28.7499 22C28.7499 21.5138 28.9519 21.0475 29.3113 20.7036C29.6707 20.3598 30.1583 20.1667 30.6666 20.1667ZM22.0416 9.16667C20.8806 9.16666 19.7592 9.56982 18.8856 10.3012C18.012 11.0326 17.4458 12.0425 17.2921 13.1432C18.2209 12.9368 19.1714 12.8329 20.1249 12.8333H26.5975L26.7317 12.8022C26.5044 11.7736 25.9143 10.851 25.0604 10.1891C24.2065 9.52722 23.1407 9.16623 22.0416 9.16667Z" fill="#222222"/>
</g>
<defs>
<clipPath id="clip0_100_4616">
<rect width="46" height="44" fill="white"/>
</clipPath>
</defs>
</svg>
