<svg width="46" height="46" viewBox="0 0 46 46" fill="none" xmlns="http://www.w3.org/2000/svg">
<path d="M5.27075 3.83301C5.27075 3.0391 4.62716 2.39551 3.83325 2.39551C3.03934 2.39551 2.39575 3.0391 2.39575 3.83301V23.1096C2.39573 27.5341 2.39571 31.0014 2.75943 33.7067C3.13173 36.4758 3.90863 38.6609 5.62368 40.3759C7.33873 42.091 9.52378 42.8679 12.2929 43.2402C14.9982 43.6039 18.4655 43.6039 22.89 43.6038H42.1666C42.9605 43.6038 43.6041 42.9603 43.6041 42.1663C43.6041 41.3724 42.9605 40.7288 42.1666 40.7288H22.9999C18.4417 40.7288 15.1676 40.7258 12.6759 40.3908C10.2257 40.0614 8.74845 39.4348 7.65661 38.343C6.56477 37.2511 5.93823 35.7739 5.6088 33.3237C5.27381 30.832 5.27075 27.5579 5.27075 22.9997V3.83301Z" fill="#1C274C"/>
<path d="M37.5426 14.3103C38.0363 13.6886 37.9326 12.7843 37.3109 12.2906C36.6891 11.7969 35.7849 11.9007 35.2912 12.5224L29.315 20.048C28.8449 20.6399 28.5366 21.027 28.2825 21.3058C28.034 21.5786 27.9174 21.6559 27.8644 21.6843C27.4604 21.9002 26.9777 21.9107 26.5647 21.7126C26.5105 21.6865 26.3906 21.6143 26.1305 21.3526C25.8646 21.0851 25.5397 20.7118 25.0443 20.1409L25.0134 20.1052C24.5575 19.5797 24.1686 19.1316 23.8257 18.7865C23.4691 18.4278 23.0792 18.0932 22.5963 17.8614C21.3574 17.2669 19.9093 17.2984 18.6973 17.9462C18.225 18.1988 17.85 18.55 17.5094 18.9239C17.1817 19.2836 16.8128 19.7482 16.3801 20.293L10.3742 27.8557C9.88048 28.4774 9.98423 29.3817 10.6059 29.8754C11.2277 30.3691 12.1319 30.2654 12.6256 29.6437L18.6021 22.1179C19.0722 21.526 19.3806 21.139 19.6346 20.8601C19.8831 20.5874 19.9997 20.5101 20.0528 20.4817C20.4567 20.2657 20.9394 20.2552 21.3524 20.4534C21.4067 20.4795 21.5265 20.5517 21.7866 20.8133C22.0525 21.0809 22.3774 21.4541 22.8728 22.025L22.9037 22.0607C23.3597 22.5862 23.7485 23.0344 24.0914 23.3794C24.448 23.7381 24.8379 24.0728 25.3208 24.3045C26.5598 24.8991 28.0079 24.8676 29.2198 24.2197C29.6922 23.9672 30.0672 23.6159 30.4078 23.242C30.7354 22.8824 31.1044 22.4178 31.537 21.873L37.5426 14.3103Z" fill="#1C274C"/>
</svg>
