<svg width="39" height="39" viewBox="0 0 39 39" fill="none" xmlns="http://www.w3.org/2000/svg">
<path d="M4.875 7.3125V9.75H31.6875V29.25H14.625V31.6875H36.5625V29.25H34.125V7.3125H4.875ZM9.75244 10.9688C8.46066 10.9732 7.22305 11.4882 6.30939 12.4014C5.39574 13.3146 4.88014 14.552 4.875 15.8438C4.875 18.5238 7.07362 20.7188 9.75244 20.7188C11.0436 20.7136 12.2803 20.1983 13.193 19.2851C14.1058 18.3719 14.6205 17.1349 14.625 15.8438C14.625 13.1662 12.4288 10.9688 9.75244 10.9688ZM17.0625 12.1875V14.625H23.1562V12.1875H17.0625ZM25.5938 12.1875V14.625H29.25V12.1875H25.5938ZM9.75244 13.4062C11.1101 13.4062 12.1875 14.4824 12.1875 15.8438C12.1875 17.2087 11.1113 18.2812 9.75244 18.2812C8.38744 18.2812 7.3125 17.2087 7.3125 15.8438C7.3125 14.4824 8.38866 13.4062 9.75244 13.4062ZM17.0625 17.0625V19.5H29.25V17.0625H17.0625ZM4.875 21.9375V31.6875H7.3125V24.375H10.9688V31.6875H13.4062V25.1769L15.9218 26.5078C16.6347 26.8856 17.4915 26.8844 18.2032 26.5078V26.5103L22.5054 24.2348L21.3683 22.0777L17.0649 24.3531L13.2917 22.3616C12.7651 22.0834 12.1786 21.9378 11.583 21.9375H4.875Z" fill="black"/>
</svg>
