<svg width="46" height="46" viewBox="0 0 46 46" fill="none" xmlns="http://www.w3.org/2000/svg">
<path fill-rule="evenodd" clip-rule="evenodd" d="M14.2508 2.39551H31.7488C32.8413 2.39547 33.7689 2.39545 34.5354 2.4747C35.3515 2.55908 36.1058 2.74232 36.8183 3.18271C37.5309 3.6231 38.0321 4.21578 38.4726 4.90802C38.8863 5.55821 39.3011 6.38786 39.7896 7.36505L39.8212 7.42817C39.8398 7.46544 39.8568 7.5035 39.8721 7.54225L42.5624 14.3429C42.8825 15.1521 43.2373 16.1616 43.341 17.1946C43.4471 18.2513 43.3014 19.4618 42.4735 20.5116C41.7962 21.3704 40.8546 22.015 39.7708 22.3218V40.7288H42.1666C42.9605 40.7288 43.6041 41.3724 43.6041 42.1663C43.6041 42.9603 42.9605 43.6038 42.1666 43.6038H3.83325C3.03934 43.6038 2.39575 42.9603 2.39575 42.1663C2.39575 41.3724 3.03934 40.7288 3.83325 40.7288H6.22909V22.3219C5.14514 22.0151 4.2034 21.3705 3.52611 20.5116C2.69819 19.4618 2.55257 18.2513 2.65868 17.1946C2.76242 16.1616 3.11716 15.1521 3.43727 14.3429L6.12753 7.54225C6.14286 7.5035 6.15986 7.46544 6.1785 7.42817L6.21011 7.36495C6.69863 6.38782 7.11342 5.55818 7.52711 4.90802C7.96757 4.21578 8.46878 3.6231 9.18134 3.18271C9.89391 2.74232 10.6482 2.55908 11.4643 2.4747C12.2308 2.39545 13.1584 2.39547 14.2508 2.39551ZM34.4998 20.8673C35.1437 21.5494 35.9677 22.0597 36.8958 22.3222V40.7288H29.2291L29.2291 35.3962C29.2291 34.5534 29.2291 33.8262 29.1751 33.2296C29.1179 32.5987 28.9913 31.9739 28.6513 31.3851C28.2728 30.7295 27.7284 30.1851 27.0728 29.8066C26.484 29.4667 25.8593 29.34 25.2283 29.2829C24.6317 29.2288 23.9046 29.2288 23.0617 29.2288H22.9382C22.0952 29.2288 21.3681 29.2288 20.7715 29.2829C20.1406 29.34 19.5158 29.4667 18.927 29.8066C18.2714 30.1851 17.727 30.7295 17.3485 31.3851C17.0086 31.9739 16.882 32.5987 16.8248 33.2296C16.7707 33.8262 16.7707 34.5533 16.7708 35.3962L16.7708 40.7288H9.10409V22.3221C10.032 22.0596 10.8559 21.5493 11.4998 20.8673C12.4607 21.8852 13.8227 22.5205 15.3331 22.5205C16.8434 22.5205 18.2054 21.8852 19.1664 20.8673C20.1274 21.8852 21.4894 22.5205 22.9998 22.5205C24.5101 22.5205 25.8721 21.8852 26.8331 20.8673C27.7941 21.8852 29.1561 22.5205 30.6664 22.5205C32.1768 22.5205 33.5388 21.8852 34.4998 20.8673ZM19.6458 40.7288H26.3541V35.458C26.3541 34.5359 26.3527 33.9404 26.3118 33.4891C26.2727 33.0576 26.2067 32.9009 26.1615 32.8226C26.0353 32.6041 25.8539 32.4226 25.6353 32.2964C25.557 32.2512 25.4004 32.1852 24.9688 32.1461C24.5175 32.1052 23.922 32.1038 22.9999 32.1038C22.0778 32.1038 21.4823 32.1052 21.031 32.1461C20.5995 32.1852 20.4428 32.2512 20.3645 32.2964C20.146 32.4226 19.9645 32.6041 19.8383 32.8226C19.7931 32.9009 19.7271 33.0576 19.688 33.4891C19.6471 33.9404 19.6458 34.5359 19.6458 35.458V40.7288ZM12.9373 17.2497C12.9373 18.5729 14.0099 19.6455 15.3331 19.6455C16.6563 19.6455 17.7289 18.5729 17.7289 17.2497C17.7289 16.4558 18.3725 15.8122 19.1664 15.8122C19.9603 15.8122 20.6039 16.4558 20.6039 17.2497C20.6039 18.5729 21.6766 19.6455 22.9998 19.6455C24.3229 19.6455 25.3956 18.5729 25.3956 17.2497C25.3956 16.4558 26.0392 15.8122 26.8331 15.8122C27.627 15.8122 28.2706 16.4558 28.2706 17.2497C28.2706 18.5729 29.3432 19.6455 30.6664 19.6455C31.9896 19.6455 33.0623 18.5729 33.0623 17.2497C33.0623 16.4558 33.7058 15.8122 34.4998 15.8122C35.2937 15.8122 35.9373 16.4558 35.9373 17.2497C35.9373 18.5729 37.0099 19.6455 38.3331 19.6455C39.0959 19.6455 39.7749 19.2907 40.216 18.7313C40.4344 18.4545 40.54 18.0756 40.4804 17.4819C40.4184 16.8645 40.1904 16.1624 39.889 15.4004L37.2217 8.658C36.7086 7.63192 36.3657 6.95236 36.047 6.45141C35.7403 5.96952 35.5206 5.76044 35.3069 5.62833C35.0931 5.49621 34.8078 5.3932 34.2397 5.33445C33.6384 5.27229 32.8604 5.27051 31.6782 5.27051H14.3215C13.1393 5.27051 12.3613 5.27229 11.76 5.33445C11.1918 5.3932 10.9066 5.49621 10.6928 5.62833C10.4791 5.76044 10.2593 5.96952 9.95272 6.45141C9.63397 6.95236 9.29107 7.63192 8.77793 8.658L6.11069 15.4004C5.80924 16.1625 5.58129 16.8645 5.51929 17.4819C5.45967 18.0757 5.56527 18.4545 5.78362 18.7314C6.22468 19.2907 6.90367 19.6455 7.66642 19.6455C8.9896 19.6455 10.0623 18.5729 10.0623 17.2497C10.0623 16.4558 10.7058 15.8122 11.4998 15.8122C12.2937 15.8122 12.9373 16.4558 12.9373 17.2497Z" fill="#1C274C"/>
</svg>
