<svg width="46" height="46" viewBox="0 0 46 46" fill="none" xmlns="http://www.w3.org/2000/svg">
<path d="M43.125 37.3749H40.25V20.7628C40.2501 20.3649 40.1675 19.9713 40.0076 19.6069C39.8477 19.2426 39.6139 18.9154 39.321 18.646L24.946 5.08323C24.939 5.0771 24.9324 5.0705 24.9263 5.06347C24.397 4.58214 23.7073 4.31543 22.9919 4.31543C22.2765 4.31543 21.5868 4.58214 21.0576 5.06347L21.0378 5.08323L6.67898 18.646C6.38609 18.9154 6.15229 19.2426 5.99238 19.6069C5.83248 19.9713 5.74994 20.3649 5.75 20.7628V37.3749H2.875C2.49375 37.3749 2.12812 37.5263 1.85853 37.7959C1.58895 38.0655 1.4375 38.4311 1.4375 38.8124C1.4375 39.1936 1.58895 39.5593 1.85853 39.8288C2.12812 40.0984 2.49375 40.2499 2.875 40.2499H43.125C43.5062 40.2499 43.8719 40.0984 44.1415 39.8288C44.411 39.5593 44.5625 39.1936 44.5625 38.8124C44.5625 38.4311 44.411 38.0655 44.1415 37.7959C43.8719 37.5263 43.5062 37.3749 43.125 37.3749ZM8.625 20.7628L8.64477 20.7448L23 7.18737L37.357 20.7412L37.3768 20.7592V37.3749H28.75V28.7499C28.75 27.9874 28.4471 27.2561 27.9079 26.7169C27.3688 26.1778 26.6375 25.8749 25.875 25.8749H20.125C19.3625 25.8749 18.6312 26.1778 18.0921 26.7169C17.5529 27.2561 17.25 27.9874 17.25 28.7499V37.3749H8.625V20.7628ZM25.875 37.3749H20.125V28.7499H25.875V37.3749Z" fill="#222222"/>
</svg>
