<svg width="34" height="34" viewBox="0 0 34 34" fill="none" xmlns="http://www.w3.org/2000/svg">
<path d="M8.5 9.5625C7.65943 9.5625 6.83774 9.31324 6.13883 8.84625C5.43992 8.37925 4.89518 7.71549 4.57351 6.93891C4.25184 6.16232 4.16768 5.30779 4.33166 4.48337C4.49565 3.65895 4.90042 2.90167 5.4948 2.3073C6.08917 1.71292 6.84645 1.30815 7.67087 1.14416C8.49529 0.980177 9.34982 1.06434 10.1264 1.38601C10.903 1.70769 11.5667 2.25242 12.0337 2.95133C12.5007 3.65024 12.75 4.47193 12.75 5.3125C12.75 6.43967 12.3022 7.52068 11.5052 8.31771C10.7082 9.11474 9.62717 9.5625 8.5 9.5625ZM8.5 3.1875C8.07971 3.1875 7.66887 3.31213 7.31941 3.54563C6.96996 3.77913 6.69759 4.11101 6.53676 4.4993C6.37592 4.88759 6.33384 5.31486 6.41583 5.72707C6.49782 6.13928 6.70021 6.51792 6.9974 6.8151C7.29458 7.11229 7.67322 7.31468 8.08543 7.39667C8.49764 7.47866 8.92491 7.43658 9.3132 7.27575C9.7015 7.11491 10.0334 6.84254 10.2669 6.49309C10.5004 6.14363 10.625 5.73279 10.625 5.3125C10.625 4.74892 10.4011 4.20841 10.0026 3.8099C9.60409 3.41139 9.06359 3.1875 8.5 3.1875ZM25.5 9.5625C24.6594 9.5625 23.8377 9.31324 23.1388 8.84625C22.4399 8.37925 21.8952 7.71549 21.5735 6.93891C21.2518 6.16232 21.1677 5.30779 21.3317 4.48337C21.4956 3.65895 21.9004 2.90167 22.4948 2.3073C23.0892 1.71292 23.8464 1.30815 24.6709 1.14416C25.4953 0.980177 26.3498 1.06434 27.1264 1.38601C27.903 1.70769 28.5667 2.25242 29.0337 2.95133C29.5007 3.65024 29.75 4.47193 29.75 5.3125C29.75 6.43967 29.3022 7.52068 28.5052 8.31771C27.7082 9.11474 26.6272 9.5625 25.5 9.5625ZM25.5 3.1875C25.0797 3.1875 24.6689 3.31213 24.3194 3.54563C23.97 3.77913 23.6976 4.11101 23.5368 4.4993C23.3759 4.88759 23.3338 5.31486 23.4158 5.72707C23.4978 6.13928 23.7002 6.51792 23.9974 6.8151C24.2946 7.11229 24.6732 7.31468 25.0854 7.39667C25.4976 7.47866 25.9249 7.43658 26.3132 7.27575C26.7015 7.11491 27.0334 6.84254 27.2669 6.49309C27.5004 6.14363 27.625 5.73279 27.625 5.3125C27.625 4.74892 27.4011 4.20841 27.0026 3.8099C26.6041 3.41139 26.0636 3.1875 25.5 3.1875ZM27.625 31.875H23.375C22.8114 31.875 22.2709 31.6511 21.8724 31.2526C21.4739 30.8541 21.25 30.3136 21.25 29.75V22.3125H23.375V29.75H27.625V20.1875H29.75V13.8125C29.75 13.5307 29.6381 13.2605 29.4388 13.0612C29.2395 12.8619 28.9693 12.75 28.6875 12.75H21.8662L17 21.25L12.1337 12.75H5.3125C5.03071 12.75 4.76046 12.8619 4.5612 13.0612C4.36194 13.2605 4.25 13.5307 4.25 13.8125V20.1875H6.375V29.75H10.625V22.3125H12.75V29.75C12.75 30.3136 12.5261 30.8541 12.1276 31.2526C11.7291 31.6511 11.1886 31.875 10.625 31.875H6.375C5.81141 31.875 5.27091 31.6511 4.8724 31.2526C4.47388 30.8541 4.25 30.3136 4.25 29.75V22.3125C3.68641 22.3125 3.14591 22.0886 2.7474 21.6901C2.34888 21.2916 2.125 20.7511 2.125 20.1875V13.8125C2.125 12.9671 2.46083 12.1564 3.0586 11.5586C3.65637 10.9608 4.46712 10.625 5.3125 10.625H13.3663L17 17L20.6338 10.625H28.6875C29.5329 10.625 30.3436 10.9608 30.9414 11.5586C31.5392 12.1564 31.875 12.9671 31.875 13.8125V20.1875C31.875 20.7511 31.6511 21.2916 31.2526 21.6901C30.8541 22.0886 30.3136 22.3125 29.75 22.3125V29.75C29.75 30.3136 29.5261 30.8541 29.1276 31.2526C28.7291 31.6511 28.1886 31.875 27.625 31.875Z" fill="black"/>
</svg>
