<svg width="50" height="37" viewBox="0 0 50 37" fill="none" xmlns="http://www.w3.org/2000/svg">
<path d="M18.8685 1.79226C18.4132 1.79226 17.9507 1.82334 17.481 1.87754C14.9806 2.16732 12.7981 3.14869 11.2589 4.5557C9.7124 5.96343 8.7874 7.84812 9.01865 9.84265C9.221 11.6204 10.305 13.1091 11.8442 14.1352C12.0321 13.6872 12.2706 13.2753 12.5091 12.9428C11.2372 12.1046 10.4567 10.97 10.3122 9.6909C10.146 8.26726 10.7964 6.83062 12.1044 5.6339C13.4196 4.43646 15.378 3.53386 17.6399 3.27226C19.9019 3.00994 22.0192 3.44064 23.573 4.30566C25.1194 5.1714 26.0806 6.42377 26.2468 7.8409C26.4058 9.23562 25.7987 10.6448 24.5558 11.8155C23.7872 11.3353 22.9036 11.0708 21.9976 11.0495H21.8386C21.47 11.0567 21.1087 11.1001 20.7329 11.1796C18.0229 11.8083 16.3392 14.4677 16.9606 17.1559C17.3437 18.818 18.5216 20.0899 20.0103 20.6608L22.8792 33.105L26.2757 35.2079L28.4075 31.8331L26.7093 30.7852L27.7788 29.0942L26.0806 28.0391L27.1429 26.3553L25.4446 25.3003L26.5142 23.6093L25.5386 19.3889C26.6298 18.2255 27.1284 16.5634 26.7454 14.894C26.5503 14.0485 26.1528 13.3042 25.6036 12.6971C26.9694 11.3241 27.7571 9.55359 27.5403 7.69636C27.3091 5.70545 25.9794 4.08019 24.1511 3.06341C22.6696 2.23597 20.8413 1.77925 18.8685 1.79226ZM17.4087 11.5843C15.537 11.6637 13.8026 12.7983 13.0438 14.6339C12.3862 16.2165 12.6103 17.9364 13.4919 19.2733L8.59229 31.0526L10.1315 34.7382L13.8315 33.2278L13.0583 31.385L14.9083 30.6335L14.1423 28.7907L15.9923 28.0391L15.219 26.1964L17.069 25.4376L18.7167 21.4774C17.2353 20.6464 16.1007 19.2227 15.6888 17.445C15.1901 15.2553 15.9128 13.0657 17.4087 11.5843ZM21.6001 12.1046C22.2433 12.0973 22.8503 12.3575 23.2911 12.7839C22.8937 13.0368 22.4528 13.2608 21.9903 13.4632C21.8747 13.4198 21.7519 13.4053 21.6218 13.4053C21.5784 13.4053 21.5423 13.4053 21.5062 13.4126C21.0003 13.4704 20.6245 13.8534 20.5595 14.3303C20.545 14.4026 20.545 14.4749 20.545 14.5399C20.5522 14.5616 20.5522 14.5905 20.5522 14.6122C20.6245 15.2192 21.1521 15.6384 21.7591 15.5661C22.2505 15.5083 22.6263 15.1397 22.6985 14.6772C23.1466 14.4749 23.5657 14.2509 23.9632 13.9979C23.9776 14.0702 23.9921 14.1425 23.9993 14.2147C24.1511 15.5155 23.2044 16.7079 21.9036 16.8596C20.6101 17.0114 19.4104 16.0647 19.2659 14.7639C19.1142 13.4632 20.0608 12.2708 21.3616 12.119C21.4411 12.1118 21.5206 12.1046 21.6001 12.1046Z" fill="#222222"/>
<path d="M48.1659 19.6563L33.8125 5.30286C33.5986 5.08719 33.3439 4.9162 33.0632 4.79984C32.7826 4.68347 32.4817 4.62404 32.1779 4.62501H18.7813C18.4746 4.62501 18.1805 4.74683 17.9637 4.96367C17.7468 5.18051 17.625 5.47461 17.625 5.78126V19.1779C17.624 19.4817 17.6835 19.7826 17.7998 20.0632C17.9162 20.3439 18.0872 20.5986 18.3029 20.8125L32.6563 35.1659C32.871 35.3807 33.126 35.5511 33.4066 35.6673C33.6872 35.7836 33.9879 35.8434 34.2916 35.8434C34.5954 35.8434 34.8961 35.7836 35.1767 35.6673C35.4573 35.5511 35.7123 35.3807 35.927 35.1659L48.1659 22.927C48.3807 22.7123 48.5511 22.4573 48.6673 22.1767C48.7836 21.8961 48.8434 21.5954 48.8434 21.2916C48.8434 20.9879 48.7836 20.6872 48.6673 20.4066C48.5511 20.126 48.3807 19.871 48.1659 19.6563ZM34.2909 33.5313L19.9375 19.1779V6.93751H32.1779L46.5313 21.2909L34.2909 33.5313ZM26.875 12.1406C26.875 12.4837 26.7733 12.819 26.5827 13.1042C26.3921 13.3894 26.1213 13.6117 25.8044 13.743C25.4874 13.8743 25.1387 13.9086 24.8023 13.8417C24.4658 13.7748 24.1568 13.6096 23.9142 13.367C23.6717 13.1245 23.5065 12.8154 23.4396 12.479C23.3727 12.1426 23.407 11.7938 23.5383 11.4769C23.6696 11.16 23.8919 10.8891 24.1771 10.6986C24.4623 10.508 24.7976 10.4063 25.1406 10.4063C25.6006 10.4063 26.0418 10.589 26.367 10.9142C26.6923 11.2395 26.875 11.6807 26.875 12.1406Z" fill="#222222"/>
</svg>
