<svg width="46" height="46" viewBox="0 0 46 46" fill="none" xmlns="http://www.w3.org/2000/svg">
<path fill-rule="evenodd" clip-rule="evenodd" d="M18.1405 5.4061C21.2507 3.94797 24.7501 3.94797 27.8603 5.4061L40.6851 11.4187C42.702 12.3642 43.6046 14.4176 43.6046 16.2917C43.6046 18.1658 42.702 20.2192 40.6851 21.1648L37.8543 22.4919V31.8654C37.8543 34.2671 36.6501 36.5859 34.458 37.7999C33.0171 38.5978 31.1237 39.5583 29.1312 40.3228C27.1621 41.0782 24.9817 41.6875 23.0001 41.6875C21.0184 41.6875 18.8381 41.0782 16.869 40.3228C14.8765 39.5583 12.983 38.5978 11.5422 37.7999C9.35008 36.5859 8.14592 34.2671 8.14592 31.8654V22.0417C8.14592 21.9622 8.15236 21.8843 8.16475 21.8084C8.11965 21.5323 8.15451 21.2402 8.28223 20.9678C8.61923 20.2489 9.47516 19.9394 10.194 20.2764L19.361 24.5741C21.698 25.6697 24.3031 25.6697 26.6401 24.5741L39.4647 18.5616C40.2374 18.1993 40.7296 17.3352 40.7296 16.2917C40.7296 15.2483 40.2374 14.3841 39.4647 14.0218L26.6399 8.00922C24.3029 6.91359 21.6978 6.91359 19.3609 8.00922L6.53623 14.0217C5.8174 14.3587 4.96147 14.0492 4.62447 13.3303C4.28746 12.6115 4.597 11.7556 5.31583 11.4186L18.1405 5.4061ZM11.0209 23.8393V31.8654C11.0209 33.3278 11.7469 34.6268 12.9351 35.2848C14.3086 36.0455 16.0748 36.9388 17.8988 37.6385C19.7462 38.3473 21.5394 38.8125 23.0001 38.8125C24.4608 38.8125 26.2539 38.3473 28.1014 37.6385C29.9254 36.9388 31.6915 36.0455 33.0651 35.2848C34.2533 34.6268 34.9793 33.3278 34.9793 31.8654V23.8398L27.8605 27.1772C24.7502 28.6354 21.2508 28.6354 18.1406 27.1772L11.0209 23.8393Z" fill="#222222"/>
<path d="M12.8214 14.7671C13.1341 15.4968 12.7961 16.3419 12.0663 16.6546L10.0046 17.5382C8.84933 18.0333 8.08813 18.3617 7.52875 18.6764C6.99978 18.9739 6.7706 19.1962 6.62495 19.4171C6.47929 19.638 6.36524 19.9362 6.30009 20.5397C6.23119 21.1778 6.22925 22.0068 6.22925 23.2637V28.75C6.22925 29.5439 5.58566 30.1875 4.79175 30.1875C3.99784 30.1875 3.35425 29.5439 3.35425 28.75V23.1893C3.35421 22.0268 3.35418 21.0416 3.4417 20.2311C3.53482 19.3685 3.73732 18.5737 4.22478 17.8345C4.71223 17.0952 5.36301 16.596 6.11911 16.1706C6.82968 15.7709 7.73515 15.3829 8.80361 14.925L10.9338 14.0121C11.6635 13.6993 12.5086 14.0374 12.8214 14.7671Z" fill="#222222"/>
</svg>
