<svg width="46" height="46" viewBox="0 0 46 46" fill="none" xmlns="http://www.w3.org/2000/svg">
<path d="M37.2061 14.4955C35.3427 12.6279 33.1281 11.1477 30.6899 10.1401C28.2517 9.13258 25.6382 8.61767 23 8.62508H22.9281C11.872 8.66281 2.875 17.7891 2.875 28.9531V33.0626C2.875 33.8251 3.1779 34.5563 3.71707 35.0955C4.25623 35.6347 4.9875 35.9376 5.75 35.9376H40.25C41.0125 35.9376 41.7438 35.6347 42.2829 35.0955C42.8221 34.5563 43.125 33.8251 43.125 33.0626V28.7501C43.1324 26.1004 42.6129 23.4756 41.5968 21.0285C40.5807 18.5813 39.0882 16.3606 37.2061 14.4955ZM40.25 33.0626H21.5104L31.3501 19.5321C31.5745 19.2238 31.6673 18.8389 31.608 18.4622C31.5487 18.0854 31.3422 17.7477 31.0338 17.5232C30.7255 17.2987 30.3406 17.206 29.9639 17.2653C29.5871 17.3246 29.2494 17.5311 29.0249 17.8395L17.9544 33.0626H5.75V28.9531C5.75 28.3997 5.77695 27.8534 5.82727 27.3126H10.0625C10.4437 27.3126 10.8094 27.1611 11.079 26.8915C11.3485 26.622 11.5 26.2563 11.5 25.8751C11.5 25.4938 11.3485 25.1282 11.079 24.8586C10.8094 24.589 10.4437 24.4376 10.0625 24.4376H6.33758C8.19195 17.4549 14.2438 12.1757 21.5625 11.5612V15.8126C21.5625 16.1938 21.714 16.5595 21.9835 16.829C22.2531 17.0986 22.6188 17.2501 23 17.2501C23.3812 17.2501 23.7469 17.0986 24.0165 16.829C24.2861 16.5595 24.4375 16.1938 24.4375 15.8126V11.5594C28.0037 11.8595 31.3886 13.2598 34.1246 15.5667C36.8606 17.8736 38.8127 20.9734 39.7109 24.4376H35.9375C35.5563 24.4376 35.1906 24.589 34.921 24.8586C34.6514 25.1282 34.5 25.4938 34.5 25.8751C34.5 26.2563 34.6514 26.622 34.921 26.8915C35.1906 27.1611 35.5563 27.3126 35.9375 27.3126H40.1907C40.2284 27.7887 40.25 28.2667 40.25 28.7501V33.0626Z" fill="#222222"/>
</svg>
