<svg width="46" height="46" viewBox="0 0 46 46" fill="none" xmlns="http://www.w3.org/2000/svg">
<path fill-rule="evenodd" clip-rule="evenodd" d="M22.8804 2.39551H23.1197C26.9793 2.39548 30.0254 2.39545 32.244 2.68798C34.4247 2.9755 36.3841 3.60911 37.3147 5.4159C37.4487 5.67621 37.5619 5.94673 37.6531 6.22491C38.288 8.16261 37.3484 9.99292 36.0101 11.7252C34.6492 13.4869 32.4944 15.6207 29.7664 18.3222L25.043 22.9997L29.7664 27.6772C32.4944 30.3786 34.6492 32.5124 36.0101 34.2741C37.3484 36.0064 38.288 37.8367 37.6531 39.7744C37.5619 40.0526 37.4487 40.3231 37.3147 40.5834C36.3841 42.3902 34.4248 43.0238 32.244 43.3114C30.0254 43.6039 26.9793 43.6039 23.1196 43.6038H22.8804C19.0208 43.6039 15.9747 43.6039 13.756 43.3114C11.5753 43.0238 9.61594 42.3902 8.68538 40.5834C8.55131 40.3231 8.43815 40.0526 8.34699 39.7744C7.71207 37.8367 8.65166 36.0064 9.98991 34.2741C11.3508 32.5124 13.5056 30.3786 16.2337 27.6772L20.9571 22.9997L16.2337 18.3222C13.5056 15.6207 11.3508 13.4869 9.98991 11.7252C8.65166 9.99292 7.71207 8.16262 8.34699 6.22492C8.43815 5.94673 8.55131 5.67622 8.68538 5.4159C9.61594 3.60911 11.5753 2.9755 13.756 2.68798C15.9747 2.39545 19.0207 2.39548 22.8804 2.39551ZM23 20.9766L27.6575 16.3645C30.4901 13.5593 32.5055 11.5592 33.735 9.96764C35.0014 8.32825 35.0702 7.57535 34.921 7.12014C34.8773 6.98694 34.8231 6.85725 34.7588 6.73229C34.5351 6.29799 33.9369 5.81106 31.8682 5.53831C29.8604 5.27358 27.0053 5.27051 23 5.27051C18.9948 5.27051 16.1397 5.27358 14.1318 5.53831C12.0631 5.81106 11.465 6.29799 11.2413 6.73229C11.1769 6.85725 11.1227 6.98694 11.0791 7.12013C10.9299 7.57535 10.9986 8.32825 12.2651 9.96764C13.4946 11.5592 15.5099 13.5593 18.3426 16.3645L23 20.9766ZM23 25.0227L18.3426 29.6349C15.5099 32.44 13.4946 34.4402 12.2651 36.0317C10.9986 37.6711 10.9299 38.424 11.0791 38.8792C11.1227 39.0124 11.1769 39.1421 11.2413 39.2671C11.465 39.7014 12.0631 40.1883 14.1318 40.461C16.1397 40.7258 18.9948 40.7288 23 40.7288C27.0053 40.7288 29.8604 40.7258 31.8682 40.461C33.9369 40.1883 34.5351 39.7014 34.7588 39.2671C34.8231 39.1421 34.8773 39.0124 34.921 38.8792C35.0702 38.424 35.0014 37.6711 33.735 36.0317C32.5055 34.4402 30.4901 32.44 27.6575 29.6349L23 25.0227ZM17.7292 10.5413C17.7292 9.74743 18.3728 9.10384 19.1667 9.10384H26.8334C27.6273 9.10384 28.2709 9.74743 28.2709 10.5413C28.2709 11.3353 27.6273 11.9788 26.8334 11.9788H19.1667C18.3728 11.9788 17.7292 11.3353 17.7292 10.5413ZM17.7292 35.458C17.7292 34.6641 18.3728 34.0205 19.1667 34.0205H26.8334C27.6273 34.0205 28.2709 34.6641 28.2709 35.458C28.2709 36.2519 27.6273 36.8955 26.8334 36.8955H19.1667C18.3728 36.8955 17.7292 36.2519 17.7292 35.458Z" fill="#1C274C"/>
</svg>
