<svg width="46" height="46" viewBox="0 0 46 46" fill="none" xmlns="http://www.w3.org/2000/svg">
<path fill-rule="evenodd" clip-rule="evenodd" d="M19.0614 2.39551H26.9385C29.5597 2.39547 31.6725 2.39544 33.3341 2.61885C35.0593 2.85079 36.5119 3.34701 37.6656 4.50068C38.8193 5.65435 39.3155 7.10695 39.5475 8.83215C39.7709 10.4938 39.7708 12.6066 39.7708 15.2278V30.7715C39.7708 33.3927 39.7709 35.5055 39.5475 37.1672C39.3155 38.8924 38.8193 40.345 37.6656 41.4987C36.5119 42.6523 35.0593 43.1486 33.3341 43.3805C31.6724 43.6039 29.5597 43.6039 26.9385 43.6038H19.0615C16.4402 43.6039 14.3274 43.6039 12.6658 43.3805C10.9406 43.1486 9.48796 42.6523 8.33429 41.4987C7.18061 40.345 6.6844 38.8924 6.45245 37.1672C6.37828 36.6155 6.32874 36.0142 6.29565 35.361C6.22075 35.1245 6.20616 34.8661 6.26507 34.6086C6.22907 33.474 6.22909 32.198 6.22912 30.7715V15.2278C6.22908 12.6066 6.22904 10.4938 6.45245 8.83215C6.6844 7.10695 7.18061 5.65435 8.33429 4.50068C9.48796 3.34701 10.9406 2.85079 12.6658 2.61885C14.3274 2.39544 16.4402 2.39547 19.0614 2.39551ZM9.1554 34.9771C9.18453 35.6552 9.23021 36.2515 9.30182 36.7841C9.4909 38.1905 9.83676 38.9353 10.3672 39.4657C10.8977 39.9962 11.6424 40.3421 13.0488 40.5311C14.4966 40.7258 16.4154 40.7288 19.1666 40.7288H26.8333C29.5845 40.7288 31.5033 40.7258 32.9511 40.5311C34.3575 40.3421 35.1022 39.9962 35.6327 39.4657C36.1631 38.9353 36.509 38.1905 36.6981 36.7841C36.8569 35.603 36.8882 34.1083 36.8943 32.1038H15.1374C13.2624 32.1038 12.6069 32.1162 12.1045 32.2508C10.7258 32.6202 9.62675 33.645 9.1554 34.9771ZM36.8958 29.2288V15.333C36.8958 12.5818 36.8927 10.663 36.6981 9.21524C36.509 7.80884 36.1631 7.06407 35.6327 6.53361C35.1022 6.00315 34.3575 5.65729 32.9511 5.46821C31.5033 5.27356 29.5845 5.27051 26.8333 5.27051H19.1666C17.4266 5.27051 16.0196 5.27173 14.8541 5.32187V29.2288C14.8745 29.2288 14.8949 29.2288 14.9154 29.2288C14.9883 29.2288 15.0623 29.2288 15.1374 29.2288H36.8958ZM11.9791 29.3465C11.7635 29.3791 11.5584 29.4207 11.3604 29.4738C10.5401 29.6935 9.77924 30.0525 9.10412 30.5244V15.333C9.10412 12.5818 9.10717 10.663 9.30182 9.21524C9.4909 7.80884 9.83676 7.06407 10.3672 6.53361C10.7435 6.15735 11.2276 5.87396 11.9791 5.67353V29.3465Z" fill="#1C274D"/>
<path fill-rule="evenodd" clip-rule="evenodd" d="M26 8.52051C21.3171 8.52051 17.5209 12.3168 17.5209 16.9997C17.5209 21.6826 21.3171 25.4788 26 25.4788C30.683 25.4788 34.4792 21.6826 34.4792 16.9997C34.4792 12.3168 30.683 8.52051 26 8.52051ZM16.1459 16.9997C16.1459 11.5574 20.5577 7.14551 26 7.14551C31.4423 7.14551 35.8542 11.5574 35.8542 16.9997C35.8542 22.442 31.4423 26.8538 26 26.8538C20.5577 26.8538 16.1459 22.442 16.1459 16.9997ZM26 10.8122C26.3797 10.8122 26.6875 11.12 26.6875 11.4997V11.79C28.1821 12.0576 29.4375 13.1805 29.4375 14.708C29.4375 15.0877 29.1297 15.3955 28.75 15.3955C28.3703 15.3955 28.0625 15.0877 28.0625 14.708C28.0625 14.0861 27.5455 13.4278 26.6875 13.1932V16.3733C28.1821 16.641 29.4375 17.7638 29.4375 19.2913C29.4375 20.8189 28.1821 21.9417 26.6875 22.2093V22.4997C26.6875 22.8794 26.3797 23.1872 26 23.1872C25.6203 23.1872 25.3125 22.8794 25.3125 22.4997V22.2093C23.818 21.9417 22.5625 20.8189 22.5625 19.2913C22.5625 18.9116 22.8703 18.6038 23.25 18.6038C23.6297 18.6038 23.9375 18.9116 23.9375 19.2913C23.9375 19.9133 24.4546 20.5716 25.3125 20.8062V17.626C23.818 17.3584 22.5625 16.2355 22.5625 14.708C22.5625 13.1805 23.818 12.0576 25.3125 11.79V11.4997C25.3125 11.12 25.6203 10.8122 26 10.8122ZM25.3125 13.1932C24.4546 13.4278 23.9375 14.0861 23.9375 14.708C23.9375 15.3299 24.4546 15.9882 25.3125 16.2228V13.1932ZM26.6875 17.7765V20.8062C27.5455 20.5716 28.0625 19.9133 28.0625 19.2913C28.0625 18.6694 27.5455 18.0111 26.6875 17.7765Z" fill="#1C274C"/>
</svg>
