<svg width="46" height="46" viewBox="0 0 46 46" fill="none" xmlns="http://www.w3.org/2000/svg">
<path fill-rule="evenodd" clip-rule="evenodd" d="M23 5.81578C22.8886 6.00868 22.7647 6.23082 22.6187 6.49275L22.4303 6.83077C22.417 6.85463 22.4027 6.88069 22.3875 6.9086C22.237 7.18386 21.9877 7.63969 21.5721 7.95521C21.1478 8.27731 20.6374 8.38814 20.3389 8.45294C20.309 8.45943 20.2813 8.46546 20.2559 8.4712L19.89 8.55398C19.5543 8.62995 19.2808 8.69193 19.0469 8.7507C19.199 8.93795 19.3966 9.17043 19.6536 9.47095L19.9031 9.76265C19.9208 9.78334 19.94 9.80551 19.9605 9.82911C20.1674 10.0674 20.5014 10.4521 20.6558 10.9488C20.8085 11.4397 20.7558 11.9452 20.7226 12.2641C20.7193 12.2959 20.7162 12.3259 20.7135 12.3538L20.6758 12.7429C20.6408 13.1038 20.6136 13.3918 20.5955 13.626C20.7952 13.538 21.0224 13.4335 21.2924 13.3092L21.635 13.1514C21.6585 13.1406 21.6844 13.1284 21.7123 13.1152C21.9874 12.9855 22.4659 12.7598 23 12.7598C23.5342 12.7598 24.0127 12.9855 24.2878 13.1152C24.3157 13.1284 24.3416 13.1406 24.3652 13.1514L24.7077 13.3092C24.9777 13.4335 25.2049 13.538 25.4046 13.626C25.3865 13.3918 25.3593 13.1038 25.3244 12.7429L25.2866 12.3538C25.2839 12.3259 25.2808 12.2959 25.2775 12.2641C25.2443 11.9452 25.1916 11.4397 25.3443 10.9488C25.4987 10.4521 25.8327 10.0674 26.0396 9.82912C26.0601 9.80551 26.0793 9.78334 26.097 9.76264L26.3465 9.47095C26.6035 9.17043 26.8011 8.93795 26.9532 8.7507C26.7193 8.69193 26.4458 8.62995 26.1101 8.55398L25.7442 8.4712C25.7188 8.46546 25.6911 8.45943 25.6612 8.45294C25.3627 8.38814 24.8523 8.27731 24.428 7.95521C24.0124 7.63969 23.7631 7.18386 23.6126 6.9086C23.5974 6.88069 23.5831 6.85463 23.5698 6.83076L23.3814 6.49274C23.2354 6.23082 23.1115 6.00868 23 5.81578ZM21.1092 3.44897C21.4392 3.01806 22.0385 2.39551 23 2.39551C23.9616 2.39551 24.5609 3.01806 24.8909 3.44897C25.2058 3.86025 25.523 4.42955 25.8482 5.01322C25.863 5.03976 25.8778 5.06632 25.8926 5.0929L26.081 5.43092C26.1247 5.50931 26.1591 5.57099 26.1892 5.62374C26.2416 5.63604 26.3025 5.64985 26.3786 5.66708L26.7445 5.74987C26.7745 5.75664 26.8045 5.76342 26.8344 5.77019C27.4628 5.91216 28.0872 6.05326 28.5665 6.24216C29.0958 6.45074 29.8132 6.85694 30.0897 7.7461C30.3613 8.61958 30.0186 9.35945 29.7192 9.83498C29.4421 10.2751 29.0211 10.7672 28.59 11.2711C28.5705 11.2939 28.551 11.3167 28.5315 11.3395L28.282 11.6312C28.2159 11.7085 28.1661 11.7668 28.1242 11.8172C28.1299 11.8868 28.1377 11.968 28.1482 12.0765L28.1859 12.4656C28.1888 12.4953 28.1917 12.525 28.1946 12.5546C28.2601 13.2291 28.3234 13.881 28.3002 14.4024C28.2758 14.9491 28.1446 15.7768 27.4025 16.3401C26.637 16.9212 25.7915 16.7946 25.2554 16.641C24.7614 16.4994 24.1777 16.2305 23.5898 15.9596C23.5616 15.9466 23.5335 15.9336 23.5053 15.9207L23.1627 15.7629C23.0986 15.7334 23.046 15.7092 23 15.6884C22.9541 15.7092 22.9015 15.7334 22.8374 15.7629L22.4948 15.9207C22.4666 15.9336 22.4385 15.9466 22.4103 15.9596C21.8224 16.2305 21.2387 16.4994 20.7447 16.641C20.2086 16.7946 19.3631 16.9212 18.5976 16.3401C17.8555 15.7768 17.7243 14.9491 17.6999 14.4024C17.6767 13.881 17.74 13.2291 17.8055 12.5546C17.8084 12.525 17.8113 12.4953 17.8142 12.4656L17.8519 12.0765C17.8624 11.968 17.8702 11.8868 17.8759 11.8172C17.834 11.7668 17.7842 11.7085 17.7181 11.6312L17.4686 11.3395C17.4491 11.3167 17.4296 11.2939 17.4101 11.2711C16.979 10.7672 16.558 10.2751 16.2809 9.83498C15.9815 9.35945 15.6388 8.61958 15.9104 7.7461C16.1869 6.85694 16.9043 6.45074 17.4336 6.24216C17.9129 6.05327 18.5373 5.91217 19.1656 5.77019C19.1956 5.76342 19.2256 5.75665 19.2556 5.74986L19.6215 5.66708C19.6976 5.64985 19.7585 5.63604 19.8109 5.62374C19.841 5.57099 19.8754 5.50931 19.9191 5.43092L20.1075 5.0929C20.1223 5.06632 20.1371 5.03976 20.1519 5.01322C20.4771 4.42955 20.7943 3.86025 21.1092 3.44897ZM20.9888 17.7288H25.0113C26.2857 17.7288 27.3837 17.7287 28.2629 17.8469C29.2052 17.9736 30.1085 18.2593 30.8411 18.9919C31.5738 19.7246 31.8595 20.6278 31.9861 21.5701C32.1044 22.4494 32.1043 23.5474 32.1042 24.8217L32.1042 29.5498C32.4178 29.4547 32.7418 29.3911 33.0705 29.3469C33.9498 29.2287 35.0478 29.2288 36.3221 29.2288H36.5113C37.7857 29.2288 38.8837 29.2287 39.7629 29.3469C40.7052 29.4736 41.6085 29.7593 42.3411 30.4919C43.0738 31.2246 43.3595 32.1278 43.4861 33.0701C43.6044 33.9494 43.6043 35.0474 43.6042 36.3217V42.1663C43.6042 42.9603 42.9606 43.6038 42.1667 43.6038C41.3728 43.6038 40.7292 42.9603 40.7292 42.1663V36.4163C40.7292 35.0204 40.7262 34.1181 40.6368 33.4532C40.553 32.8297 40.4176 32.6343 40.3082 32.5249C40.1988 32.4154 40.0033 32.2801 39.3798 32.1963C38.715 32.1069 37.8126 32.1038 36.4167 32.1038C35.0208 32.1038 34.1185 32.1069 33.4536 32.1963C32.8301 32.2801 32.6347 32.4154 32.5253 32.5249C32.4158 32.6343 32.2805 32.8297 32.1967 33.4532C32.1073 34.1181 32.1042 35.0204 32.1042 36.4163V42.1663C32.1042 42.9603 31.4606 43.6038 30.6667 43.6038C29.8728 43.6038 29.2292 42.9603 29.2292 42.1663L29.2292 36.3217C29.2292 36.259 29.2292 36.1967 29.2292 36.1348V24.9163C29.2292 23.5204 29.2262 22.6181 29.1368 21.9532C29.0529 21.3297 28.9176 21.1343 28.8082 21.0249C28.6988 20.9154 28.5033 20.7801 27.8798 20.6963C27.215 20.6069 26.3126 20.6038 24.9167 20.6038H21.0834C19.6875 20.6038 18.7851 20.6069 18.1203 20.6963C17.4968 20.7801 17.3013 20.9154 17.1919 21.0249C17.0825 21.1343 16.9472 21.3297 16.8633 21.9532C16.7739 22.6181 16.7709 23.5204 16.7709 24.9163V41.8848C16.7709 41.9467 16.7709 42.009 16.7709 42.0717L16.7709 42.1663C16.7709 42.9603 16.1273 43.6038 15.3334 43.6038C14.5395 43.6038 13.8959 42.9603 13.8959 42.1663C13.8959 40.7704 13.8928 39.8681 13.8034 39.2032C13.7196 38.5797 13.5843 38.3843 13.4748 38.2749C13.3654 38.1654 13.17 38.0301 12.5465 37.9463C11.8816 37.8569 10.9793 37.8538 9.58338 37.8538C8.18746 37.8538 7.28512 37.8569 6.62027 37.9463C5.99677 38.0301 5.80134 38.1654 5.69192 38.2749C5.58249 38.3843 5.44715 38.5797 5.36332 39.2032C5.27393 39.8681 5.27088 40.7704 5.27088 42.1663C5.27088 42.9603 4.62729 43.6038 3.83338 43.6038C3.03947 43.6038 2.39588 42.9603 2.39588 42.1663L2.39588 42.0717C2.39581 40.7974 2.39574 39.6994 2.51396 38.8201C2.64065 37.8778 2.92634 36.9746 3.65898 36.2419C4.39162 35.5093 5.29488 35.2236 6.23718 35.0969C7.11644 34.9787 8.21443 34.9788 9.48876 34.9788H9.678C10.9523 34.9788 12.0503 34.9787 12.9296 35.0969C13.2583 35.1411 13.5823 35.2047 13.8959 35.2998L13.8959 24.8217C13.8958 23.5474 13.8957 22.4494 14.014 21.5701C14.1406 20.6278 14.4263 19.7246 15.159 18.9919C15.8916 18.2593 16.7949 17.9736 17.7372 17.8469C18.6164 17.7287 19.7144 17.7288 20.9888 17.7288Z" fill="#1C274C"/>
</svg>
