<svg width="46" height="46" viewBox="0 0 46 46" fill="none" xmlns="http://www.w3.org/2000/svg">
<path d="M30.6666 30.6663C30.6666 28.5484 24.6598 26.833 17.25 26.833M30.6666 30.6663C30.6666 32.7843 24.6598 34.4997 17.25 34.4997C9.84013 34.4997 3.83329 32.7843 3.83329 30.6663M30.6666 30.6663V40.1289C30.6666 42.312 24.6598 44.083 17.25 44.083C9.84013 44.083 3.83329 42.3139 3.83329 40.1289V30.6663M30.6666 30.6663C37.996 30.6663 44.0833 28.7746 44.0833 26.833V7.66634M17.25 26.833C9.84013 26.833 3.83329 28.5484 3.83329 30.6663M17.25 26.833C8.78213 26.833 1.91663 24.9413 1.91663 22.9997V13.4163M17.25 9.58301C8.78213 9.58301 1.91663 11.2984 1.91663 13.4163M1.91663 13.4163C1.91663 15.5343 8.78213 17.2497 17.25 17.2497C17.25 19.1913 23.4849 21.083 30.8142 21.083C38.1416 21.083 44.0833 19.1913 44.0833 17.2497M44.0833 7.66634C44.0833 5.54842 38.1416 3.83301 30.8142 3.83301C23.4849 3.83301 17.5451 5.54842 17.5451 7.66634M44.0833 7.66634C44.0833 9.78426 38.1416 11.4997 30.8142 11.4997C23.4868 11.4997 17.5451 9.78426 17.5451 7.66634M17.5451 7.66634V27.1512" stroke="#222222" stroke-width="2"/>
</svg>
